<svg xmlns="http://www.w3.org/2000/svg" width="948.215087890625" height="746.6949462890625" viewBox="-400.0379943847656 -377.9870300292969 948.215087890625 746.6949462890625"><title>Neo4j Graph Visualization</title><desc>Created using Neo4j (http://www.neo4j.com/)</desc><g class="layer relationships"><g class="relationship" transform="translate(-229.7225491989275 339.7078689561816) rotate(190.94829939993855)"><path class="b-outline" fill="#A5ABB6" stroke="none" d="M 25 0.5 L 62.13166450296673 0.5 L 62.13166450296673 -0.5 L 25 -0.5 Z M 74.80353950296673 0.5 L 111.93520400593346 0.5 L 111.93520400593346 3.5 L 118.93520400593346 0 L 111.93520400593346 -3.5 L 111.93520400593346 -0.5 L 74.80353950296673 -0.5 Z"/><text text-anchor="middle" pointer-events="none" font-size="8px" fill="#000000" x="68.46760200296673" y="3" transform="rotate(180 68.46760200296673 0)" font-family="Helvetica Neue, Helvetica, Arial, sans-serif">of</text></g><g class="relationship" transform="translate(-82.78935779327878 46.24299339975616) rotate(486.4065301938731)"><path class="b-outline" fill="#A5ABB6" stroke="none" d="M 25 0.5 L 76.20713010536333 0.5 L 76.20713010536333 -0.5 L 25 -0.5 Z M 95.55478635536333 0.5 L 146.76191646072667 0.5 L 146.76191646072667 3.5 L 153.76191646072667 0 L 146.76191646072667 -3.5 L 146.76191646072667 -0.5 L 95.55478635536333 -0.5 Z"/><text text-anchor="middle" pointer-events="none" font-size="8px" fill="#000000" x="85.88095823036333" y="3" transform="rotate(180 85.88095823036333 0)" font-family="Helvetica Neue, Helvetica, Arial, sans-serif">and</text></g><g class="relationship" transform="translate(83.85624397040513 144.5505656654775) rotate(323.22028672609827)"><path class="b-outline" fill="#A5ABB6" stroke="none" d="M 25 0.5 L 71.44561193267421 0.5 L 71.44561193267421 -0.5 L 25 -0.5 Z M 138.3792056826742 0.5 L 184.82481761534842 0.5 L 184.82481761534842 3.5 L 191.82481761534842 0 L 184.82481761534842 -3.5 L 184.82481761534842 -0.5 L 138.3792056826742 -0.5 Z"/><text text-anchor="middle" pointer-events="none" font-size="8px" fill="#000000" x="104.91240880767421" y="3" font-family="Helvetica Neue, Helvetica, Arial, sans-serif">and_surrendered</text></g><g class="relationship" transform="translate(257.5206543112342 14.728864417568808) rotate(318.13923809160156)"><path class="b-outline" fill="#A5ABB6" stroke="none" d="M 25 0.5 L 123.70130904400173 0.5 L 123.70130904400173 -0.5 L 25 -0.5 Z M 170.16615279400173 0.5 L 268.86746183800346 0.5 L 268.86746183800346 3.5 L 275.86746183800346 0 L 268.86746183800346 -3.5 L 268.86746183800346 -0.5 L 170.16615279400173 -0.5 Z"/><text text-anchor="middle" pointer-events="none" font-size="8px" fill="#000000" x="146.93373091900173" y="3" font-family="Helvetica Neue, Helvetica, Arial, sans-serif">after_killing</text></g><g class="relationship" transform="translate(481.59733056596633 -186.0468132714243) rotate(448.86648731975424)"><path class="b-outline" fill="#A5ABB6" stroke="none" d="M 25 0.5 L 64.46598942571944 0.5 L 64.46598942571944 -0.5 L 25 -0.5 Z M 96.70036442571944 0.5 L 136.16635385143888 0.5 L 136.16635385143888 3.5 L 143.16635385143888 0 L 136.16635385143888 -3.5 L 136.16635385143888 -0.5 L 96.70036442571944 -0.5 Z"/><text text-anchor="middle" pointer-events="none" font-size="8px" fill="#000000" x="80.58317692571944" y="3" font-family="Helvetica Neue, Helvetica, Arial, sans-serif">servant</text></g><g class="relationship" transform="translate(481.59733056596633 -186.0468132714243) rotate(525.2645595640369)"><path class="b-outline" fill="#A5ABB6" stroke="none" d="M 21.40063509461097,12.933012701892217 L 21.90063509461097,12.06698729810778 A 371.4571696038196 371.4571696038196 0 0 0 178.71422864497728,60.70570037154806 L 178.63638658506395,61.70266607492431 A 372.4571696038196 372.4571696038196 0 0 1 21.40063509461097,12.933012701892217 Z M 230.4631130988761,62.13222433983111 L 230.4018070076908,61.1341053272962 A 371.4571696038196 371.4571696038196 0 0 0 388.00007122568735,15.10134908682582 L 386.5433418951844,12.478766455591414 L 394.3622189203181,12.139411087524632 L 389.9423769996913,18.598125928471696 L 388.4856476691884,15.975543297237287 A 372.4571696038196 372.4571696038196 0 0 1 230.4631130988761,62.13222433983111"/><text text-anchor="middle" pointer-events="none" font-size="8px" fill="#000000" x="204.5464130258256" y="65.32003612896602" transform="rotate(180 204.5464130258256 62.320036128966024)" font-family="Helvetica Neue, Helvetica, Arial, sans-serif">were_friends</text></g><g class="relationship" transform="translate(190.94925095408377 -221.7588718418572) rotate(304.3520155023957)"><path class="b-outline" fill="#A5ABB6" stroke="none" d="M 25 0.5 L 49.20749282416412 0.5 L 49.20749282416412 -0.5 L 25 -0.5 Z M 97.89889907416412 0.5 L 122.10639189832824 0.5 L 122.10639189832824 3.5 L 129.10639189832824 0 L 122.10639189832824 -3.5 L 122.10639189832824 -0.5 L 97.89889907416412 -0.5 Z"/><text text-anchor="middle" pointer-events="none" font-size="8px" fill="#000000" x="73.55319594916412" y="3" font-family="Helvetica Neue, Helvetica, Arial, sans-serif">cinema_hall</text></g><g class="relationship" transform="translate(190.94925095408377 -221.7588718418572) rotate(367.00484760140137)"><path class="b-outline" fill="#A5ABB6" stroke="none" d="M 24.018736134675446,6.953439040707552 L 24.277555179777966,5.987513214418485 A 469.2780262269347 469.2780262269347 0 0 0 118.88341962643182,21.20889820069584 L 118.82619933336827,22.20725977751141 A 470.2780262269347 470.2780262269347 0 0 1 24.018736134675446,6.953439040707552 Z M 166.96485599756076,22.498367155598828 L 166.91971416868893,21.499386567556144 A 469.2780262269347 469.2780262269347 0 0 0 261.7027483678618,7.4232870866105864 L 260.96139401454917,4.5163309942651235 L 268.6092049755533,6.177952944272015 L 262.6912208389453,11.299228543071203 L 261.9498664856327,8.392272450725741 A 470.2780262269347 470.2780262269347 0 0 1 166.96485599756076,22.498367155598828"/><text text-anchor="middle" pointer-events="none" font-size="8px" fill="#000000" x="142.89482393755452" y="25.469184671115727" font-family="Helvetica Neue, Helvetica, Arial, sans-serif">about_affair</text></g><g class="relationship" transform="translate(190.94925095408377 -221.7588718418572) rotate(367.00484760140137)"><path class="b-outline" fill="#A5ABB6" stroke="none" d="M 24.018736134675446,-6.953439040707552 L 24.277555179777966,-5.987513214418485 A 469.2780262269347 469.2780262269347 0 0 1 105.82160439093082,-20.27726581955801 L 105.73655024563999,-21.27364215025284 A 470.2780262269347 470.2780262269347 0 0 0 24.018736134675446,-6.953439040707552 Z M 180.0648390174898,-21.72312526344058 L 179.99184136229954,-20.725793151084474 A 469.2780262269347 469.2780262269347 0 0 1 261.7027483678618,-7.4232870866105864 L 260.96139401454917,-4.5163309942651235 L 268.6092049755533,-6.177952944272015 L 262.6912208389453,-11.299228543071203 L 261.9498664856327,-8.392272450725741 A 470.2780262269347 470.2780262269347 0 0 0 180.0648390174898,-21.72312526344058"/><text text-anchor="middle" pointer-events="none" font-size="8px" fill="#000000" x="142.89482393755438" y="-19.469184671115727" font-family="Helvetica Neue, Helvetica, Arial, sans-serif">extra_martial_affair</text></g><g class="relationship" transform="translate(190.94925095408377 -221.7588718418572) rotate(488.3167331244996)"><path class="b-outline" fill="#A5ABB6" stroke="none" d="M 25 0.5 L 71.05067800274655 0.5 L 71.05067800274655 -0.5 L 25 -0.5 Z M 102.39833425274655 0.5 L 148.4490122554931 0.5 L 148.4490122554931 3.5 L 155.4490122554931 0 L 148.4490122554931 -3.5 L 148.4490122554931 -0.5 L 102.39833425274655 -0.5 Z"/><text text-anchor="middle" pointer-events="none" font-size="8px" fill="#000000" x="86.72450612774655" y="3" transform="rotate(180 86.72450612774655 0)" font-family="Helvetica Neue, Helvetica, Arial, sans-serif">wife_of</text></g><g class="relationship" transform="translate(404.7238905478129 -324.4888279820172) rotate(420.9576649111076)"><path class="b-outline" fill="#A5ABB6" stroke="none" d="M 25 0.5 L 57.55938292546212 0.5 L 57.55938292546212 -0.5 L 25 -0.5 Z M 93.79375792546212 0.5 L 126.35314085092423 0.5 L 126.35314085092423 3.5 L 133.35314085092423 0 L 126.35314085092423 -3.5 L 126.35314085092423 -0.5 L 93.79375792546212 -0.5 Z"/><text text-anchor="middle" pointer-events="none" font-size="8px" fill="#000000" x="75.67657042546212" y="3" font-family="Helvetica Neue, Helvetica, Arial, sans-serif">sister_of</text></g><g class="relationship" transform="translate(484.92403738509006 -17.913367492700818) rotate(460.15195660558)"><path class="b-outline" fill="#A5ABB6" stroke="none" d="M 25 0.5 L 66.2199051351158 0.5 L 66.2199051351158 -0.5 L 25 -0.5 Z M 99.7902176351158 0.5 L 141.0101227702316 0.5 L 141.0101227702316 3.5 L 148.0101227702316 0 L 141.0101227702316 -3.5 L 141.0101227702316 -0.5 L 99.7902176351158 -0.5 Z"/><text text-anchor="middle" pointer-events="none" font-size="8px" fill="#000000" x="83.0050613851158" y="3" transform="rotate(180 83.0050613851158 0)" font-family="Helvetica Neue, Helvetica, Arial, sans-serif">testified</text></g><g class="relationship" transform="translate(79.06938406683696 -80.17941920385948) rotate(448.7797560626538)"><path class="b-outline" fill="#A5ABB6" stroke="none" d="M 25 0.5 L 82.0955582902578 0.5 L 82.0955582902578 -0.5 L 25 -0.5 Z M 135.6854020402578 0.5 L 192.7809603305156 0.5 L 192.7809603305156 3.5 L 199.7809603305156 0 L 192.7809603305156 -3.5 L 192.7809603305156 -0.5 L 135.6854020402578 -0.5 Z"/><text text-anchor="middle" pointer-events="none" font-size="8px" fill="#000000" x="108.8904801652578" y="3" font-family="Helvetica Neue, Helvetica, Arial, sans-serif">confessed_to</text></g><g class="relationship" transform="translate(79.06938406683696 -80.17941920385948) rotate(473.47565270390925)"><path class="b-outline" fill="#A5ABB6" stroke="none" d="M 25 0.5 L 58.943850439037234 0.5 L 58.943850439037234 -0.5 L 25 -0.5 Z M 100.96728793903723 0.5 L 134.91113837807447 0.5 L 134.91113837807447 3.5 L 141.91113837807447 0 L 134.91113837807447 -3.5 L 134.91113837807447 -0.5 L 100.96728793903723 -0.5 Z"/><text text-anchor="middle" pointer-events="none" font-size="8px" fill="#000000" x="79.95556918903723" y="3" transform="rotate(180 79.95556918903723 0)" font-family="Helvetica Neue, Helvetica, Arial, sans-serif">went_ship</text></g><g class="relationship" transform="translate(79.06938406683696 -80.17941920385948) rotate(530.7263823109214)"><path class="b-outline" fill="#A5ABB6" stroke="none" d="M 25 0.5 L 65.86280233462682 0.5 L 65.86280233462682 -0.5 L 25 -0.5 Z M 95.88623983462682 0.5 L 136.74904216925364 0.5 L 136.74904216925364 3.5 L 143.74904216925364 0 L 136.74904216925364 -3.5 L 136.74904216925364 -0.5 L 95.88623983462682 -0.5 Z"/><text text-anchor="middle" pointer-events="none" font-size="8px" fill="#000000" x="80.87452108462682" y="3" transform="rotate(180 80.87452108462682 0)" font-family="Helvetica Neue, Helvetica, Arial, sans-serif">appeal</text></g><g class="relationship" transform="translate(79.06938406683696 -80.17941920385948) rotate(502.007803251437)"><path class="b-outline" fill="#A5ABB6" stroke="none" d="M 24.018736134675446,6.953439040707552 L 24.277555179777966,5.987513214418485 A 299.2090243859692 299.2090243859692 0 0 0 85.96219552505923,15.76766051466916 L 85.90953550364213,16.76627301316114 A 300.2090243859692 300.2090243859692 0 0 1 24.018736134675446,6.953439040707552 Z M 112.40504348498497,16.99255045087847 L 112.3694466392558,15.993184219422687 A 299.2090243859692 299.2090243859692 0 0 0 174.21212667499907,7.26798727391076 L 173.48527449198394,4.3573712044082615 L 181.1247062010074,6.057101525125918 L 175.18126291901922,11.14880869991409 L 174.4544107360041,8.238192630411593 A 300.2090243859692 300.2090243859692 0 0 1 112.40504348498497,16.99255045087847"/><text text-anchor="middle" pointer-events="none" font-size="8px" fill="#000000" x="99.15906182319306" y="19.671884395461973" transform="rotate(180 99.15906182319306 16.671884395461973)" font-family="Helvetica Neue, Helvetica, Arial, sans-serif">under</text></g><g class="relationship" transform="translate(79.06938406683696 -80.17941920385948) rotate(398.5901011155399)"><path class="b-outline" fill="#A5ABB6" stroke="none" d="M 25 0.5 L 43.96790568641327 0.5 L 43.96790568641327 -0.5 L 25 -0.5 Z M 65.97962443641327 0.5 L 84.94753012282654 0.5 L 84.94753012282654 3.5 L 91.94753012282654 0 L 84.94753012282654 -3.5 L 84.94753012282654 -0.5 L 65.97962443641327 -0.5 Z"/><text text-anchor="middle" pointer-events="none" font-size="8px" fill="#000000" x="54.97376506141327" y="3" font-family="Helvetica Neue, Helvetica, Arial, sans-serif">drop</text></g><g class="relationship" transform="translate(79.06938406683696 -80.17941920385948) rotate(265.5875228776573)"><path class="b-outline" fill="#A5ABB6" stroke="none" d="M 25 0.5 L 75.74688365052062 0.5 L 75.74688365052062 -0.5 L 25 -0.5 Z M 90.64532115052062 0.5 L 141.39220480104123 0.5 L 141.39220480104123 3.5 L 148.39220480104123 0 L 141.39220480104123 -3.5 L 141.39220480104123 -0.5 L 90.64532115052062 -0.5 Z"/><text text-anchor="middle" pointer-events="none" font-size="8px" fill="#000000" x="83.19610240052062" y="3" transform="rotate(180 83.19610240052062 0)" font-family="Helvetica Neue, Helvetica, Arial, sans-serif">on</text></g><g class="relationship" transform="translate(79.06938406683696 -80.17941920385948) rotate(502.007803251437)"><path class="b-outline" fill="#A5ABB6" stroke="none" d="M 24.018736134675446,-6.953439040707552 L 24.277555179777966,-5.987513214418485 A 299.2090243859692 299.2090243859692 0 0 1 69.36641592905048,-14.428625588372824 L 69.25829040277415,-15.42276283773407 A 300.2090243859692 300.2090243859692 0 0 0 24.018736134675446,-6.953439040707552 Z M 129.0768059029679,-15.933626053678722 L 128.98567520894056,-14.937787112581248 A 299.2090243859692 299.2090243859692 0 0 1 174.21212667499907,-7.26798727391076 L 173.48527449198394,-4.3573712044082615 L 181.1247062010074,-6.057101525125918 L 175.18126291901922,-11.14880869991409 L 174.4544107360041,-8.238192630411593 A 300.2090243859692 300.2090243859692 0 0 0 129.0768059029679,-15.933626053678722"/><text text-anchor="middle" pointer-events="none" font-size="8px" fill="#000000" x="99.15906182319301" y="-13.671884395461973" transform="rotate(180 99.15906182319301 -16.671884395461973)" font-family="Helvetica Neue, Helvetica, Arial, sans-serif">charged_under</text></g><g class="relationship" transform="translate(79.06938406683696 -80.17941920385948) rotate(345.26455956403686)"><path class="b-outline" fill="#A5ABB6" stroke="none" d="M 25 0.5 L 184.48939646530235 0.5 L 184.48939646530235 -0.5 L 25 -0.5 Z M 224.72767771530235 0.5 L 384.2170741806047 0.5 L 384.2170741806047 3.5 L 391.2170741806047 0 L 384.2170741806047 -3.5 L 384.2170741806047 -0.5 L 224.72767771530235 -0.5 Z"/><text text-anchor="middle" pointer-events="none" font-size="8px" fill="#000000" x="204.60853709030235" y="3" font-family="Helvetica Neue, Helvetica, Arial, sans-serif">murdered</text></g><g class="relationship" transform="translate(79.06938406683696 -80.17941920385948) rotate(345.26455956403686)"><path class="b-outline" fill="#A5ABB6" stroke="none" d="M 21.40063509461097,12.933012701892217 L 21.90063509461097,12.06698729810778 A 371.4571696038196 371.4571696038196 0 0 0 178.71422864497728,60.70570037154806 L 178.63638658506395,61.70266607492431 A 372.4571696038196 372.4571696038196 0 0 1 21.40063509461097,12.933012701892217 Z M 230.4631130988761,62.13222433983111 L 230.4018070076908,61.1341053272962 A 371.4571696038196 371.4571696038196 0 0 0 388.00007122568735,15.10134908682582 L 386.5433418951844,12.478766455591414 L 394.3622189203181,12.139411087524632 L 389.9423769996913,18.598125928471696 L 388.4856476691884,15.975543297237287 A 372.4571696038196 372.4571696038196 0 0 1 230.4631130988761,62.13222433983111"/><text text-anchor="middle" pointer-events="none" font-size="8px" fill="#000000" x="204.5464130258256" y="65.32003612896602" font-family="Helvetica Neue, Helvetica, Arial, sans-serif">were_friends</text></g><g class="relationship" transform="translate(79.06938406683696 -80.17941920385948) rotate(230.7350018187475)"><path class="b-outline" fill="#A5ABB6" stroke="none" d="M 25 0.5 L 40.42731141584861 0.5 L 40.42731141584861 -0.5 L 25 -0.5 Z M 99.7866864158486 0.5 L 115.21399783169721 0.5 L 115.21399783169721 3.5 L 122.21399783169721 0 L 115.21399783169721 -3.5 L 115.21399783169721 -0.5 L 99.7866864158486 -0.5 Z"/><text text-anchor="middle" pointer-events="none" font-size="8px" fill="#000000" x="70.1069989158486" y="3" transform="rotate(180 70.1069989158486 0)" font-family="Helvetica Neue, Helvetica, Arial, sans-serif">commander_at</text></g><g class="relationship" transform="translate(65.7292551537682 -253.05769327654028) rotate(374.03358311725697)"><path class="b-outline" fill="#A5ABB6" stroke="none" d="M 25 0.5 L 33.352565826301145 0.5 L 33.352565826301145 -0.5 L 25 -0.5 Z M 88.71975332630115 0.5 L 97.07231915260229 0.5 L 97.07231915260229 3.5 L 104.07231915260229 0 L 97.07231915260229 -3.5 L 97.07231915260229 -0.5 L 88.71975332630115 -0.5 Z"/><text text-anchor="middle" pointer-events="none" font-size="8px" fill="#000000" x="61.036159576301145" y="3" font-family="Helvetica Neue, Helvetica, Arial, sans-serif">confessed_by</text></g><g class="relationship" transform="translate(277.90775593205257 -348.9870072361862) rotate(398.65784161762565)"><path class="b-outline" fill="#A5ABB6" stroke="none" d="M 25 0.5 L 106.57372775567117 0.5 L 106.57372775567117 -0.5 L 25 -0.5 Z M 147.26904025567117 0.5 L 228.84276801134234 0.5 L 228.84276801134234 3.5 L 235.84276801134234 0 L 228.84276801134234 -3.5 L 228.84276801134234 -0.5 L 147.26904025567117 -0.5 Z"/><text text-anchor="middle" pointer-events="none" font-size="8px" fill="#000000" x="126.92138400567117" y="3" font-family="Helvetica Neue, Helvetica, Arial, sans-serif">and_went</text></g><g class="relationship" transform="translate(-243.39090899346877 -218.66475044957778) rotate(385.78598257452825)"><path class="b-outline" fill="#A5ABB6" stroke="none" d="M 25 0.5 L 53.229273611130665 0.5 L 53.229273611130665 -0.5 L 25 -0.5 Z M 94.79567986113067 0.5 L 123.02495347226133 0.5 L 123.02495347226133 3.5 L 130.02495347226133 0 L 123.02495347226133 -3.5 L 123.02495347226133 -0.5 L 94.79567986113067 -0.5 Z"/><text text-anchor="middle" pointer-events="none" font-size="8px" fill="#000000" x="74.01247673613067" y="3" font-family="Helvetica Neue, Helvetica, Arial, sans-serif">dismissed</text></g><g class="relationship" transform="translate(-103.80253056168917 -151.22721782965553) rotate(381.2317090806314)"><path class="b-outline" fill="#A5ABB6" stroke="none" d="M 25 0.5 L 65.79737412994979 0.5 L 65.79737412994979 -0.5 L 25 -0.5 Z M 123.39112412994979 0.5 L 164.18849825989957 0.5 L 164.18849825989957 3.5 L 171.18849825989957 0 L 164.18849825989957 -3.5 L 164.18849825989957 -0.5 L 123.39112412994979 -0.5 Z"/><text text-anchor="middle" pointer-events="none" font-size="8px" fill="#000000" x="94.59424912994979" y="3" font-family="Helvetica Neue, Helvetica, Arial, sans-serif">and_convicted</text></g><g class="relationship" transform="translate(-87.47411210200121 -52.98561261300635) rotate(533.1360035266662)"><path class="b-outline" fill="#A5ABB6" stroke="none" d="M 25 0.5 L 46.477108904111546 0.5 L 46.477108904111546 -0.5 L 25 -0.5 Z M 102.28960890411155 0.5 L 123.76671780822309 0.5 L 123.76671780822309 3.5 L 130.7667178082231 0 L 123.76671780822309 -3.5 L 123.76671780822309 -0.5 L 102.28960890411155 -0.5 Z"/><text text-anchor="middle" pointer-events="none" font-size="8px" fill="#000000" x="74.38335890411155" y="3" transform="rotate(180 74.38335890411155 0)" font-family="Helvetica Neue, Helvetica, Arial, sans-serif">same_opinion</text></g><g class="relationship" transform="translate(170.4788770585239 -7.2340328327382615) rotate(275.45077005455914)"><path class="b-outline" fill="#A5ABB6" stroke="none" d="M 25 0.5 L 78.34339357169867 0.5 L 78.34339357169867 -0.5 L 25 -0.5 Z M 130.15589357169867 0.5 L 183.49928714339734 0.5 L 183.49928714339734 3.5 L 190.49928714339734 0 L 183.49928714339734 -3.5 L 183.49928714339734 -0.5 L 130.15589357169867 -0.5 Z"/><text text-anchor="middle" pointer-events="none" font-size="8px" fill="#000000" x="104.24964357169867" y="3" font-family="Helvetica Neue, Helvetica, Arial, sans-serif">children_and</text></g><g class="relationship" transform="translate(519.1771035314041 -321.1608849023843) rotate(465.5430398383877)"><path class="b-outline" fill="#A5ABB6" stroke="none" d="M 25 0.5 L 46.279618699755105 0.5 L 46.279618699755105 -0.5 L 25 -0.5 Z M 86.9632124497551 0.5 L 108.24283114951021 0.5 L 108.24283114951021 3.5 L 115.24283114951021 0 L 108.24283114951021 -3.5 L 108.24283114951021 -0.5 L 86.9632124497551 -0.5 Z"/><text text-anchor="middle" pointer-events="none" font-size="8px" fill="#000000" x="66.6214155747551" y="3" transform="rotate(180 66.6214155747551 0)" font-family="Helvetica Neue, Helvetica, Arial, sans-serif">shots_fire</text></g><g class="relationship" transform="translate(454.4293743614894 152.38806558420447) rotate(479.7747191044414)"><path class="b-outline" fill="#A5ABB6" stroke="none" d="M 25 0.5 L 49.249497135022324 0.5 L 49.249497135022324 -0.5 L 25 -0.5 Z M 94.38230963502232 0.5 L 118.63180677004465 0.5 L 118.63180677004465 3.5 L 125.63180677004465 0 L 118.63180677004465 -3.5 L 118.63180677004465 -0.5 L 94.38230963502232 -0.5 Z"/><text text-anchor="middle" pointer-events="none" font-size="8px" fill="#000000" x="71.81590338502232" y="3" transform="rotate(180 71.81590338502232 0)" font-family="Helvetica Neue, Helvetica, Arial, sans-serif">shots_fired</text></g><g class="relationship" transform="translate(320.01819608279936 37.57521220209503) rotate(305.85016851439843)"><path class="b-outline" fill="#A5ABB6" stroke="none" d="M 25 0.5 L 100.30963166717774 0.5 L 100.30963166717774 -0.5 L 25 -0.5 Z M 168.57916291717774 0.5 L 243.88879458435548 0.5 L 243.88879458435548 3.5 L 250.88879458435548 0 L 243.88879458435548 -3.5 L 243.88879458435548 -0.5 L 168.57916291717774 -0.5 Z"/><text text-anchor="middle" pointer-events="none" font-size="8px" fill="#000000" x="134.44439729217774" y="3" font-family="Helvetica Neue, Helvetica, Arial, sans-serif">bullets_and_went</text></g><g class="relationship" transform="translate(-188.8864535246625 190.1152598519026) rotate(465.26870437163285)"><path class="b-outline" fill="#A5ABB6" stroke="none" d="M 25 0.5 L 64.1405364270147 0.5 L 64.1405364270147 -0.5 L 25 -0.5 Z M 83.9256926770147 0.5 L 123.06622910402939 0.5 L 123.06622910402939 3.5 L 130.0662291040294 0 L 123.06622910402939 -3.5 L 123.06622910402939 -0.5 L 83.9256926770147 -0.5 Z"/><text text-anchor="middle" pointer-events="none" font-size="8px" fill="#000000" x="74.0331145520147" y="3" transform="rotate(180 74.0331145520147 0)" font-family="Helvetica Neue, Helvetica, Arial, sans-serif">part</text></g><g class="relationship" transform="translate(12.578773646942466 72.9163901465422) rotate(353.4424440735131)"><path class="b-outline" fill="#A5ABB6" stroke="none" d="M 25 0.5 L 109.3101492598428 0.5 L 109.3101492598428 -0.5 L 25 -0.5 Z M 193.1538992598428 0.5 L 277.4640485196856 0.5 L 277.4640485196856 3.5 L 284.4640485196856 0 L 277.4640485196856 -3.5 L 277.4640485196856 -0.5 L 193.1538992598428 -0.5 Z"/><text text-anchor="middle" pointer-events="none" font-size="8px" fill="#000000" x="151.2320242598428" y="3" font-family="Helvetica Neue, Helvetica, Arial, sans-serif">collected_and_loaded</text></g></g><g class="layer nodes"><g class="node" aria-label="graph-node0" transform="translate(-229.7225491989275,339.7078689561816)"><circle class="b-outline" cx="0" cy="0" r="25" fill="#8DCC93" stroke="#5db665" stroke-width="2px"/><text class="caption" text-anchor="middle" pointer-events="none" x="0" y="5" font-size="10px" fill="#2A2C34" font-family="Helvetica Neue, Helvetica, Arial, sans-serif"> one</text></g><g class="node" aria-label="graph-node1" transform="translate(-82.78935779327878,46.24299339975616)"><circle class="b-outline" cx="0" cy="0" r="25" fill="#F16667" stroke="#eb2728" stroke-width="2px"/><text class="caption" text-anchor="middle" pointer-events="none" x="0" y="0" font-size="10px" fill="#FFFFFF" font-family="Helvetica Neue, Helvetica, Arial, sans-serif"> section</text><text class="caption" text-anchor="middle" pointer-events="none" x="0" y="10" font-size="10px" fill="#FFFFFF" font-family="Helvetica Neue, Helvetica, Arial, sans-serif"> 302</text></g><g class="node" aria-label="graph-node2" transform="translate(83.85624397040513,144.5505656654775)"><circle class="b-outline" cx="0" cy="0" r="25" fill="#57C7E3" stroke="#23b3d7" stroke-width="2px"/><text class="caption" text-anchor="middle" pointer-events="none" x="0" y="-5" font-size="10px" fill="#2A2C34" font-family="Helvetica Neue, Helvetica, Arial, sans-serif"> the</text><text class="caption" text-anchor="middle" pointer-events="none" x="0" y="5" font-size="10px" fill="#2A2C34" font-family="Helvetica Neue, Helvetica, Arial, sans-serif"> Provost</text><text class="caption" text-anchor="middle" pointer-events="none" x="0" y="15" font-size="10px" fill="#2A2C34" font-family="Helvetica Neue, Helvetica, Arial, sans-serif"> Mar…</text></g><g class="node" aria-label="graph-node4" transform="translate(257.5206543112342,14.728864417568808)"><circle class="b-outline" cx="0" cy="0" r="25" fill="#F79767" stroke="#f36924" stroke-width="2px"/><text class="caption" text-anchor="middle" pointer-events="none" x="0" y="0" font-size="10px" fill="#FFFFFF" font-family="Helvetica Neue, Helvetica, Arial, sans-serif"> Deputy</text><text class="caption" text-anchor="middle" pointer-events="none" x="0" y="10" font-size="10px" fill="#FFFFFF" font-family="Helvetica Neue, Helvetica, Arial, sans-serif"> Comm…</text></g><g class="node" aria-label="graph-node7" transform="translate(481.59733056596633,-186.0468132714243)"><circle class="b-outline" cx="0" cy="0" r="25" fill="#C990C0" stroke="#b261a5" stroke-width="2px"/><text class="caption" text-anchor="middle" pointer-events="none" x="0" y="0" font-size="10px" fill="#FFFFFF" font-family="Helvetica Neue, Helvetica, Arial, sans-serif"> Prem</text><text class="caption" text-anchor="middle" pointer-events="none" x="0" y="10" font-size="10px" fill="#FFFFFF" font-family="Helvetica Neue, Helvetica, Arial, sans-serif"> Ahuja</text></g><g class="node" aria-label="graph-node8" transform="translate(190.94925095408377,-221.7588718418572)"><circle class="b-outline" cx="0" cy="0" r="25" fill="#C990C0" stroke="#b261a5" stroke-width="2px"/><text class="caption" text-anchor="middle" pointer-events="none" x="0" y="5" font-size="10px" fill="#FFFFFF" font-family="Helvetica Neue, Helvetica, Arial, sans-serif"> Sylvia</text></g><g class="node" aria-label="graph-node9" transform="translate(404.7238905478129,-324.4888279820172)"><circle class="b-outline" cx="0" cy="0" r="25" fill="#C990C0" stroke="#b261a5" stroke-width="2px"/><text class="caption" text-anchor="middle" pointer-events="none" x="0" y="5" font-size="10px" fill="#FFFFFF" font-family="Helvetica Neue, Helvetica, Arial, sans-serif"> Mamie</text></g><g class="node" aria-label="graph-node10" transform="translate(484.92403738509006,-17.913367492700818)"><circle class="b-outline" cx="0" cy="0" r="25" fill="#C990C0" stroke="#b261a5" stroke-width="2px"/><text class="caption" text-anchor="middle" pointer-events="none" x="0" y="5" font-size="10px" fill="#FFFFFF" font-family="Helvetica Neue, Helvetica, Arial, sans-serif"> Anjani</text></g><g class="node" aria-label="graph-node12" transform="translate(65.7292551537682,-253.05769327654028)"><circle class="b-outline" cx="0" cy="0" r="25" fill="#D9C8AE" stroke="#c0a378" stroke-width="2px"/><text class="caption" text-anchor="middle" pointer-events="none" x="0" y="0" font-size="10px" fill="#2A2C34" font-family="Helvetica Neue, Helvetica, Arial, sans-serif"> 27th April</text><text class="caption" text-anchor="middle" pointer-events="none" x="0" y="10" font-size="10px" fill="#2A2C34" font-family="Helvetica Neue, Helvetica, Arial, sans-serif"> 1959</text></g><g class="node" aria-label="graph-node13" transform="translate(277.90775593205257,-348.9870072361862)"><circle class="b-outline" cx="0" cy="0" r="25" fill="#4C8EDA" stroke="#2870c2" stroke-width="2px"/><text class="caption" text-anchor="middle" pointer-events="none" x="0" y="0" font-size="10px" fill="#FFFFFF" font-family="Helvetica Neue, Helvetica, Arial, sans-serif"> That</text><text class="caption" text-anchor="middle" pointer-events="none" x="0" y="10" font-size="10px" fill="#FFFFFF" font-family="Helvetica Neue, Helvetica, Arial, sans-serif"> evening</text></g><g class="node" aria-label="graph-node14" transform="translate(379.6269711469716,283.1341618323937)"><circle class="b-outline" cx="0" cy="0" r="25" fill="#4C8EDA" stroke="#2870c2" stroke-width="2px"/><text class="caption" text-anchor="middle" pointer-events="none" x="0" y="0" font-size="10px" fill="#FFFFFF" font-family="Helvetica Neue, Helvetica, Arial, sans-serif"> less than</text><text class="caption" text-anchor="middle" pointer-events="none" x="0" y="10" font-size="10px" fill="#FFFFFF" font-family="Helvetica Neue, Helvetica, Arial, sans-serif"> min…</text></g><g class="node" aria-label="graph-node15" transform="translate(-14.103535496397928,-194.15647048021913)"><circle class="b-outline" cx="0" cy="0" r="25" fill="#F79767" stroke="#f36924" stroke-width="2px"/><text class="caption" text-anchor="middle" pointer-events="none" x="0" y="0" font-size="10px" fill="#FFFFFF" font-family="Helvetica Neue, Helvetica, Arial, sans-serif"> the Indian</text><text class="caption" text-anchor="middle" pointer-events="none" x="0" y="10" font-size="10px" fill="#FFFFFF" font-family="Helvetica Neue, Helvetica, Arial, sans-serif"> Navy</text></g><g class="node" aria-label="graph-node16" transform="translate(-371.0379827224903,312.3712415073322)"><circle class="b-outline" cx="0" cy="0" r="25" fill="#F79767" stroke="#f36924" stroke-width="2px"/><text class="caption" text-anchor="middle" pointer-events="none" x="0" y="5" font-size="10px" fill="#FFFFFF" font-family="Helvetica Neue, Helvetica, Arial, sans-serif"> IPC</text></g><g class="node" aria-label="graph-node17" transform="translate(-243.39090899346877,-218.66475044957778)"><circle class="b-outline" cx="0" cy="0" r="25" fill="#F79767" stroke="#f36924" stroke-width="2px"/><text class="caption" text-anchor="middle" pointer-events="none" x="0" y="-10" font-size="10px" fill="#FFFFFF" font-family="Helvetica Neue, Helvetica, Arial, sans-serif"> The</text><text class="caption" text-anchor="middle" pointer-events="none" x="0" y="0" font-size="10px" fill="#FFFFFF" font-family="Helvetica Neue, Helvetica, Arial, sans-serif"> Bombay</text><text class="caption" text-anchor="middle" pointer-events="none" x="0" y="10" font-size="10px" fill="#FFFFFF" font-family="Helvetica Neue, Helvetica, Arial, sans-serif"> High</text><text class="caption" text-anchor="middle" pointer-events="none" x="0" y="20" font-size="10px" fill="#FFFFFF" font-family="Helvetica Neue, Helvetica, Arial, sans-serif">Co…</text></g><g class="node" aria-label="graph-node18" transform="translate(-103.80253056168917,-151.22721782965553)"><circle class="b-outline" cx="0" cy="0" r="25" fill="#F79767" stroke="#f36924" stroke-width="2px"/><text class="caption" text-anchor="middle" pointer-events="none" x="0" y="5" font-size="10px" fill="#FFFFFF" font-family="Helvetica Neue, Helvetica, Arial, sans-serif"> Jury</text></g><g class="node" aria-label="graph-node19" transform="translate(-87.47411210200121,-52.98561261300635)"><circle class="b-outline" cx="0" cy="0" r="25" fill="#F79767" stroke="#f36924" stroke-width="2px"/><text class="caption" text-anchor="middle" pointer-events="none" x="0" y="-5" font-size="10px" fill="#FFFFFF" font-family="Helvetica Neue, Helvetica, Arial, sans-serif"> The</text><text class="caption" text-anchor="middle" pointer-events="none" x="0" y="5" font-size="10px" fill="#FFFFFF" font-family="Helvetica Neue, Helvetica, Arial, sans-serif"> Supreme</text><text class="caption" text-anchor="middle" pointer-events="none" x="0" y="15" font-size="10px" fill="#FFFFFF" font-family="Helvetica Neue, Helvetica, Arial, sans-serif"> Court</text></g><g class="node" aria-label="graph-node20" transform="translate(-242.12439338142897,-34.36946701461584)"><circle class="b-outline" cx="0" cy="0" r="25" fill="#F79767" stroke="#f36924" stroke-width="2px"/><text class="caption" text-anchor="middle" pointer-events="none" x="0" y="0" font-size="10px" fill="#FFFFFF" font-family="Helvetica Neue, Helvetica, Arial, sans-serif"> The High</text><text class="caption" text-anchor="middle" pointer-events="none" x="0" y="10" font-size="10px" fill="#FFFFFF" font-family="Helvetica Neue, Helvetica, Arial, sans-serif"> Court</text></g><g class="node" aria-label="graph-node22" transform="translate(170.4788770585239,-7.2340328327382615)"><circle class="b-outline" cx="0" cy="0" r="25" fill="#8DCC93" stroke="#5db665" stroke-width="2px"/><text class="caption" text-anchor="middle" pointer-events="none" x="0" y="5" font-size="10px" fill="#2A2C34" font-family="Helvetica Neue, Helvetica, Arial, sans-serif"> two</text></g><g class="node" aria-label="graph-node23" transform="translate(519.1771035314041,-321.1608849023843)"><circle class="b-outline" cx="0" cy="0" r="25" fill="#8DCC93" stroke="#5db665" stroke-width="2px"/><text class="caption" text-anchor="middle" pointer-events="none" x="0" y="5" font-size="10px" fill="#2A2C34" font-family="Helvetica Neue, Helvetica, Arial, sans-serif"> three</text></g><g class="node" aria-label="graph-node24" transform="translate(454.4293743614894,152.38806558420447)"><circle class="b-outline" cx="0" cy="0" r="25" fill="#8DCC93" stroke="#5db665" stroke-width="2px"/><text class="caption" text-anchor="middle" pointer-events="none" x="0" y="5" font-size="10px" fill="#2A2C34" font-family="Helvetica Neue, Helvetica, Arial, sans-serif"> four</text></g><g class="node" aria-label="graph-node25" transform="translate(320.01819608279936,37.57521220209503)"><circle class="b-outline" cx="0" cy="0" r="25" fill="#8DCC93" stroke="#5db665" stroke-width="2px"/><text class="caption" text-anchor="middle" pointer-events="none" x="0" y="5" font-size="10px" fill="#2A2C34" font-family="Helvetica Neue, Helvetica, Arial, sans-serif"> six</text></g><g class="node" aria-label="graph-node26" transform="translate(-188.8864535246625,190.1152598519026)"><circle class="b-outline" cx="0" cy="0" r="25" fill="#8DCC93" stroke="#5db665" stroke-width="2px"/><text class="caption" text-anchor="middle" pointer-events="none" x="0" y="5" font-size="10px" fill="#2A2C34" font-family="Helvetica Neue, Helvetica, Arial, sans-serif"> 304</text></g><g class="node" aria-label="graph-node28" transform="translate(12.578773646942466,72.9163901465422)"><circle class="b-outline" cx="0" cy="0" r="25" fill="#ECB5C9" stroke="#da7298" stroke-width="2px"/><text class="caption" text-anchor="middle" pointer-events="none" x="0" y="5" font-size="10px" fill="#2A2C34" font-family="Helvetica Neue, Helvetica, Arial, sans-serif"> first</text></g><g class="node" aria-label="graph-node11" transform="translate(79.06938406683696,-80.17941920385948)"><circle class="b-outline" cx="0" cy="0" r="25" fill="#C990C0" stroke="#b261a5" stroke-width="2px"/><text class="caption" text-anchor="middle" pointer-events="none" x="0" y="0" font-size="10px" fill="#FFFFFF" font-family="Helvetica Neue, Helvetica, Arial, sans-serif"> Kawas</text><text class="caption" text-anchor="middle" pointer-events="none" x="0" y="10" font-size="10px" fill="#FFFFFF" font-family="Helvetica Neue, Helvetica, Arial, sans-serif"> Mane…</text></g></g></svg>